<?xml version="1.0" encoding="UTF-8" standalone="no"?>
<!-- Generator: Adobe Illustrator 23.0.4, SVG Export Plug-In . SVG Version: 6.00 Build 0)  -->

<svg
   xmlns:dc="http://purl.org/dc/elements/1.1/"
   xmlns:cc="http://creativecommons.org/ns#"
   xmlns:rdf="http://www.w3.org/1999/02/22-rdf-syntax-ns#"
   xmlns:svg="http://www.w3.org/2000/svg"
   xmlns="http://www.w3.org/2000/svg"
   xmlns:sodipodi="http://sodipodi.sourceforge.net/DTD/sodipodi-0.dtd"
   xmlns:inkscape="http://www.inkscape.org/namespaces/inkscape"
   version="1.1"
   id="Warstwa_1"
   x="0px"
   y="0px"
   viewBox="0 0 179.20953 25.000001"
   xml:space="preserve"
   sodipodi:docname="DESMART black.svg"
   width="179.20953"
   height="25"
   inkscape:version="0.92.4 (5da689c313, 2019-01-14)"><metadata
   id="metadata1048"><rdf:RDF><cc:Work
       rdf:about=""><dc:format>image/svg+xml</dc:format><dc:type
         rdf:resource="http://purl.org/dc/dcmitype/StillImage" /><dc:title></dc:title></cc:Work></rdf:RDF></metadata><defs
   id="defs1046">
	
	
</defs><sodipodi:namedview
   pagecolor="#ffffff"
   bordercolor="#666666"
   borderopacity="1"
   objecttolerance="10"
   gridtolerance="10"
   guidetolerance="10"
   inkscape:pageopacity="0"
   inkscape:pageshadow="2"
   inkscape:window-width="1920"
   inkscape:window-height="1163"
   id="namedview1044"
   showgrid="false"
   fit-margin-top="0"
   fit-margin-left="0"
   fit-margin-right="0"
   fit-margin-bottom="0"
   inkscape:zoom="2.2425964"
   inkscape:cx="89.050012"
   inkscape:cy="12.050006"
   inkscape:window-x="1920"
   inkscape:window-y="0"
   inkscape:window-maximized="1"
   inkscape:current-layer="Warstwa_1" />
<style
   type="text/css"
   id="style1015">
	.st0{fill:none;}
</style>
<g
   id="g1037"
   transform="translate(-331.9,-284.7)">
		<path
   inkscape:connector-curvature="0"
   id="path1017"
   d="m 340.8,284.8 h -7.1 c -1,0 -1.8,0.8 -1.8,1.8 v 21.3 c 0,1 0.8,1.8 1.8,1.8 h 7.1 c 6.8,0 12.4,-5.6 12.4,-12.4 0,-6.8 -5.5,-12.5 -12.4,-12.5 z m 0,21.3 h -5.3 v -17.8 h 5.3 c 4.9,0 8.9,4 8.9,8.9 0,4.9 -4,8.9 -8.9,8.9 z" />
		<g
   id="g1025">
			<path
   inkscape:connector-curvature="0"
   id="path1019"
   d="m 377.1,286.6 h -15.2 c -0.8,0 -1.5,0.7 -1.5,1.5 0,0.8 0.7,1.5 1.5,1.5 h 15.2 c 0.8,0 1.5,-0.7 1.5,-1.5 0,-0.8 -0.7,-1.5 -1.5,-1.5 z" />
			<path
   inkscape:connector-curvature="0"
   id="path1021"
   d="m 361.9,298.8 h 9.9 c 0.8,0 1.5,-0.7 1.5,-1.5 0,-0.8 -0.7,-1.5 -1.5,-1.5 h -9.9 c -0.8,0 -1.5,0.7 -1.5,1.5 0,0.8 0.7,1.5 1.5,1.5 z" />
			<path
   inkscape:connector-curvature="0"
   id="path1023"
   d="m 377.1,304.8 h -15.2 c -0.8,0 -1.5,0.7 -1.5,1.5 0,0.8 0.7,1.5 1.5,1.5 h 15.2 c 0.8,0 1.5,-0.7 1.5,-1.5 0,-0.8 -0.7,-1.5 -1.5,-1.5 z" />
		</g>
		<path
   inkscape:connector-curvature="0"
   id="path1027"
   d="m 399.2,295.5 c -0.1,0 -0.1,0 0,0 h -6.4 c -2,0 -3.6,-1.6 -3.6,-3.6 0,-2 1.6,-3.6 3.6,-3.6 h 11.6 c 1,0 1.8,-0.8 1.8,-1.8 0,-1 -0.8,-1.8 -1.8,-1.8 h -11.6 c -3.9,0 -7.1,3.2 -7.1,7.1 0,3.9 3.2,7.1 7.1,7.1 h 6.2 c 2,0 3.6,1.6 3.6,3.6 0,2 -1.6,3.6 -3.6,3.6 h -11.6 c -1,0 -1.8,0.8 -1.8,1.8 0,1 0.8,1.8 1.8,1.8 H 399 c 3.9,0 7.1,-3.2 7.1,-7.1 0,-3.9 -3,-7 -6.9,-7.1 z" />
		<path
   inkscape:connector-curvature="0"
   id="path1029"
   d="m 509.6,286.6 h -15.2 c -0.8,0 -1.5,0.7 -1.5,1.5 0,0.8 0.7,1.5 1.5,1.5 h 6.1 v 16.7 c 0,0.8 0.7,1.5 1.5,1.5 0.8,0 1.5,-0.7 1.5,-1.5 v -16.7 h 6.1 c 0.8,0 1.5,-0.7 1.5,-1.5 0.1,-0.8 -0.6,-1.5 -1.5,-1.5 z" />
		<path
   inkscape:connector-curvature="0"
   id="path1031"
   d="m 485.5,293.4 c 0,-3.8 -3,-6.8 -6.8,-6.8 h -9.1 c -0.8,0 -1.5,0.7 -1.5,1.5 v 18.2 c 0,0.8 0.7,1.5 1.5,1.5 0.8,0 1.5,-0.7 1.5,-1.5 v -6.1 h 6.1 l 5.6,7 c 0.5,0.7 1.4,0.8 2.1,0.2 0.7,-0.5 0.8,-1.4 0.2,-2.1 l -4.3,-5.4 c 2.7,-0.8 4.7,-3.4 4.7,-6.5 z m -6.8,3.8 h -0.4 c -0.2,-0.1 -0.4,-0.1 -0.7,0 h -6.5 v -7.6 h 7.6 c 2.1,0 3.8,1.7 3.8,3.8 0,2.2 -1.7,3.8 -3.8,3.8 z" />
		<path
   inkscape:connector-curvature="0"
   id="path1033"
   d="m 451.3,287.4 c -0.5,-1.1 -2.1,-1.1 -2.7,0 l -9.1,18.2 c -0.4,0.8 -0.1,1.7 0.7,2.1 0.8,0.4 1.7,0.1 2.1,-0.7 l 7.7,-15.5 7.7,15.5 c 0.4,0.8 1.3,1.1 2.1,0.7 0.8,-0.4 1.1,-1.3 0.7,-2.1 z" />
		<path
   inkscape:connector-curvature="0"
   id="path1035"
   d="m 429.6,287.2 -6.4,9 -7.1,-9 c -0.9,-1.1 -2.7,-0.5 -2.7,0.9 v 18.2 c 0,0.8 0.7,1.5 1.5,1.5 0.8,0 1.5,-0.7 1.5,-1.5 v -13.8 l 5.6,7.2 c 0.6,0.8 1.8,0.8 2.4,-0.1 l 4.9,-6.8 v 13.5 c 0,0.8 0.7,1.5 1.5,1.5 0.8,0 1.5,-0.7 1.5,-1.5 v -18.2 c 0,-1.4 -1.8,-2 -2.7,-0.9 z" />
	</g><rect
   style="fill:none"
   id="rect1039"
   height="74.599998"
   width="229"
   class="st0"
   y="-24.800007"
   x="-24.799994" />
</svg>